# xmcd CD database file
#
# Track frame offsets:
#	150
#	22715
#	44280
#	63975
#	83812
#	105625
#	124672
#	145190
#	167235
#	189802
#	214400
#
# Disc length: 3123 seconds
#
# Revision: 0
# Processed by: cddbd v1.5.1PL0 Copyright (c) Steve Scherf et al.
# Submitted via: CDex 1.51
#
DISCID=8d0c310b
DTITLE=水越恵子 - イン・マイ・ライフ
DYEAR=1900
DGENRE=JPop
TTITLE0=Forget-me-not Blue
TTITLE1=青空のペイジ
TTITLE2=You are my life
TTITLE3=ジェラシー
TTITLE4=最後は愛して
TTITLE5=32階のBar
TTITLE6=Full moon
TTITLE7=15の頃
TTITLE8=あ・な・た・に
TTITLE9=Too far away (with 谷村新司)
TTITLE10=In my life
EXTD=
EXTT0=
EXTT1=
EXTT2=
EXTT3=
EXTT4=
EXTT5=
EXTT6=
EXTT7=
EXTT8=
EXTT9=
EXTT10=
PLAYORDER=
